<?xml version="1.0" encoding="utf-8"?>
<!-- Generator: Adobe Illustrator 14.0.0, SVG Export Plug-In . SVG Version: 6.00 Build 43363)  -->
<!DOCTYPE svg PUBLIC "-//W3C//DTD SVG 1.1//EN" "http://www.w3.org/Graphics/SVG/1.1/DTD/svg11.dtd">
<svg version="1.1" id="Layer_1" xmlns="http://www.w3.org/2000/svg" xmlns:xlink="http://www.w3.org/1999/xlink" x="0px" y="0px"
	 width="292px" height="200.68px" viewBox="0 0 292 200.68" enable-background="new 0 0 292 200.68" xml:space="preserve">
<g>
	<path fill="#545454" d="M93.326,74.816c0,2.233,1.805,4.038,4.037,4.038h96.903c2.229,0,4.035-1.805,4.035-4.038
		c0-2.229-1.806-4.034-4.035-4.034H97.363C95.131,70.781,93.326,72.586,93.326,74.816z"/>
	<path fill="#545454" d="M255.201,69.043c0-13.909-10.48-29.414-25.512-29.414c-2.231,0-4.037,1.807-4.037,4.037
		c0,2.231,1.806,4.039,4.037,4.039c9.817,0,17.437,11.465,17.437,21.336c0,9.858-8.065,17.89-17.985,17.89H113.514
		c-2.231,0-4.036,1.805-4.036,4.036c0,2.23,1.805,4.039,4.036,4.039h115.625C243.506,95.007,255.201,83.358,255.201,69.043z"/>
	<path fill="#545454" d="M247.126,134.23c0-14.399-11.387-31.149-26.063-31.149H81.213c-2.231,0-4.037,1.807-4.037,4.039
		c0,2.229,1.806,4.037,4.037,4.037h139.852c9.519,0,17.986,12.899,17.986,23.073c0,10.338-7.82,18.745-17.438,18.745
		c-2.229,0-4.036,1.807-4.036,4.038c0,2.23,1.807,4.037,4.036,4.037C235.684,161.051,247.126,149.024,247.126,134.23z"/>
	<path fill="#545454" d="M52.949,74.816c0,2.233,1.807,4.038,4.038,4.038h24.227c2.231,0,4.037-1.805,4.037-4.038
		c0-2.229-1.806-4.034-4.037-4.034H56.986C54.756,70.781,52.949,72.586,52.949,74.816z"/>
	<path fill="#545454" d="M40.837,111.156h24.227c2.23,0,4.037-1.808,4.037-4.037c0-2.232-1.807-4.039-4.037-4.039H40.837
		c-2.231,0-4.038,1.807-4.038,4.039C36.799,109.35,38.605,111.156,40.837,111.156z"/>
	<path fill="#545454" d="M73.139,95.007h24.226c2.23,0,4.038-1.808,4.038-4.039s-1.808-4.036-4.038-4.036H73.139
		c-2.232,0-4.038,1.805-4.038,4.036S70.906,95.007,73.139,95.007z"/>
</g>
</svg>
