<?xml version="1.0" encoding="utf-8"?>
<!-- Generator: Adobe Illustrator 14.0.0, SVG Export Plug-In . SVG Version: 6.00 Build 43363)  -->
<!DOCTYPE svg PUBLIC "-//W3C//DTD SVG 1.1//EN" "http://www.w3.org/Graphics/SVG/1.1/DTD/svg11.dtd">
<svg version="1.1" id="Layer_1" xmlns="http://www.w3.org/2000/svg" xmlns:xlink="http://www.w3.org/1999/xlink" x="0px" y="0px"
	 width="238px" height="238px" viewBox="0 0 238 238" enable-background="new 0 0 238 238" xml:space="preserve">
<g>
	<g>
		<path fill="#545454" d="M48.063,48.062c39.116-39.116,102.763-39.12,141.876-0.006c39.119,39.119,39.117,102.767,0,141.883
			c-39.116,39.117-102.765,39.119-141.882,0C8.941,150.824,8.945,87.178,48.063,48.062L48.063,48.062z M184.514,184.514
			c36.125-36.127,36.125-94.907,0-131.031c-36.121-36.121-94.9-36.12-131.026,0.006c-36.125,36.125-36.126,94.903-0.005,131.024
			C89.607,220.637,148.389,220.639,184.514,184.514L184.514,184.514z"/>
	</g>
	<g>
		<path fill="#545454" d="M64.399,64.367l136.419,56.93l-58.457,21.033l-21.063,58.488L64.399,64.367L64.399,64.367z
			 M179.622,120.768L78.665,78.632l42.104,100.989l15.596-43.289L179.622,120.768L179.622,120.768z"/>
	</g>
</g>
</svg>
