<?xml version="1.0" encoding="utf-8"?>
<!-- Generator: Adobe Illustrator 14.0.0, SVG Export Plug-In . SVG Version: 6.00 Build 43363)  -->
<!DOCTYPE svg PUBLIC "-//W3C//DTD SVG 1.1//EN" "http://www.w3.org/Graphics/SVG/1.1/DTD/svg11.dtd">
<svg version="1.1" id="Layer_1" xmlns="http://www.w3.org/2000/svg" xmlns:xlink="http://www.w3.org/1999/xlink" x="0px" y="0px"
	 width="238px" height="238px" viewBox="0 0 238 238" enable-background="new 0 0 238 238" xml:space="preserve">
<g>
	<g>
		<g>
			<path fill="#545454" d="M122.159,20.103c-0.794-0.916-1.946-1.442-3.159-1.442s-2.365,0.526-3.159,1.442
				c-2.943,3.396-72.097,83.634-72.097,123.982c0,41.496,33.759,75.255,75.256,75.255c41.496,0,75.256-33.759,75.256-75.255
				C194.256,103.736,125.104,23.498,122.159,20.103z M119,210.979c-36.886,0-66.895-30.008-66.895-66.894
				c0-32.635,53.238-98.433,66.896-114.773c5.87,7.016,19.049,23.155,32.108,41.828c22.757,32.533,34.783,57.756,34.783,72.945
				C185.895,180.971,155.887,210.979,119,210.979z"/>
		</g>
	</g>
	<g>
		<path fill="#545454" d="M79.966,125.865c0-5.184,1.304-9.593,3.913-13.226c2.608-3.633,6.391-5.449,11.344-5.449
			c4.558,0,8.33,1.627,11.318,4.879c2.989,3.254,4.483,8.035,4.483,14.341c0,6.143-1.511,10.873-4.532,14.191
			s-6.745,4.979-11.171,4.979c-4.392,0-8.049-1.635-10.972-4.903C81.426,137.408,79.966,132.471,79.966,125.865z M95.471,113.333
			c-2.213,0-4.055,0.958-5.523,2.873c-1.47,1.916-2.204,5.433-2.204,10.551c0,4.656,0.743,7.935,2.229,9.833
			c1.486,1.899,3.319,2.85,5.499,2.85c2.245,0,4.103-0.959,5.572-2.873c1.469-1.916,2.204-5.416,2.204-10.502
			c0-4.688-0.743-7.982-2.229-9.882C99.532,114.282,97.683,113.333,95.471,113.333z M95.52,183.723l39.728-76.532h7.232
			L102.9,183.723H95.52z M126.926,164.008c0-5.218,1.305-9.635,3.913-13.251s6.406-5.424,11.394-5.424
			c4.558,0,8.33,1.627,11.318,4.879c2.988,3.253,4.482,8.033,4.482,14.341c0,6.143-1.512,10.873-4.532,14.191
			s-6.762,4.979-11.22,4.979c-4.393,0-8.051-1.644-10.973-4.929S126.926,170.58,126.926,164.008z M142.479,151.477
			c-2.246,0-4.104,0.957-5.572,2.873c-1.469,1.914-2.204,5.433-2.204,10.551c0,4.623,0.743,7.893,2.229,9.808
			c1.485,1.916,3.317,2.873,5.498,2.873c2.278,0,4.151-0.957,5.621-2.873c1.471-1.915,2.205-5.415,2.205-10.501
			c0-4.689-0.742-7.982-2.229-9.883C146.541,152.425,144.691,151.477,142.479,151.477z"/>
	</g>
</g>
</svg>
